<?xml version="1.0" encoding="UTF-8" standalone="no"?>
<svg
   id="Layer_1"
   data-name="Layer 1"
   width="1985"
   height="220.6"
   viewBox="0 0 1985 220.6"
   version="1.1"
   sodipodi:docname="stick1.svg"
   inkscape:version="1.2.1 (9c6d41e410, 2022-07-14)"
   xmlns:inkscape="http://www.inkscape.org/namespaces/inkscape"
   xmlns:sodipodi="http://sodipodi.sourceforge.net/DTD/sodipodi-0.dtd"
   xmlns="http://www.w3.org/2000/svg"
   xmlns:svg="http://www.w3.org/2000/svg">
  <sodipodi:namedview
     id="namedview88"
     pagecolor="#ffffff"
     bordercolor="#000000"
     borderopacity="0.25"
     inkscape:showpageshadow="2"
     inkscape:pageopacity="0.0"
     inkscape:pagecheckerboard="0"
     inkscape:deskcolor="#d1d1d1"
     showgrid="false"
     inkscape:zoom="1.2191436"
     inkscape:cx="211.21384"
     inkscape:cy="159.1281"
     inkscape:window-width="1920"
     inkscape:window-height="1009"
     inkscape:window-x="1912"
     inkscape:window-y="-8"
     inkscape:window-maximized="1"
     inkscape:current-layer="Layer_1" />
  <defs
     id="defs4">
    <style
       id="style2">
      .cls-1 {
        fill: #1a1a1a;
      }

      .cls-2 {
        fill: #c1272d;
      }

      .cls-3 {
        fill: #fff;
        opacity: 0.08;
      }

      .cls-3, .cls-4 {
        isolation: isolate;
      }

      .cls-4 {
        opacity: 0.1;
      }
    </style>
    <filter
       style="color-interpolation-filters:sRGB;"
       inkscape:label="Color Shift"
       id="filter408"
       x="0"
       y="0"
       width="1"
       height="1">
      <feColorMatrix
         type="hueRotate"
         values="213"
         result="color1"
         id="feColorMatrix404" />
      <feColorMatrix
         type="saturate"
         values="0.88785"
         result="color2"
         id="feColorMatrix406" />
    </filter>
    <filter
       style="color-interpolation-filters:sRGB;"
       inkscape:label="Color Shift"
       id="filter414"
       x="0"
       y="0"
       width="1"
       height="1">
      <feColorMatrix
         type="hueRotate"
         values="213"
         result="color1"
         id="feColorMatrix410" />
      <feColorMatrix
         type="saturate"
         values="0.88785"
         result="color2"
         id="feColorMatrix412" />
    </filter>
    <filter
       style="color-interpolation-filters:sRGB;"
       inkscape:label="Color Shift"
       id="filter420"
       x="0"
       y="0"
       width="1"
       height="1">
      <feColorMatrix
         type="hueRotate"
         values="213"
         result="color1"
         id="feColorMatrix416" />
      <feColorMatrix
         type="saturate"
         values="0.88785"
         result="color2"
         id="feColorMatrix418" />
    </filter>
    <filter
       style="color-interpolation-filters:sRGB;"
       inkscape:label="Color Shift"
       id="filter426"
       x="0"
       y="0"
       width="1"
       height="1">
      <feColorMatrix
         type="hueRotate"
         values="213"
         result="color1"
         id="feColorMatrix422" />
      <feColorMatrix
         type="saturate"
         values="0.88785"
         result="color2"
         id="feColorMatrix424" />
    </filter>
    <filter
       style="color-interpolation-filters:sRGB;"
       inkscape:label="Color Shift"
       id="filter432"
       x="0"
       y="0"
       width="1"
       height="1">
      <feColorMatrix
         type="hueRotate"
         values="213"
         result="color1"
         id="feColorMatrix428" />
      <feColorMatrix
         type="saturate"
         values="0.88785"
         result="color2"
         id="feColorMatrix430" />
    </filter>
    <filter
       style="color-interpolation-filters:sRGB;"
       inkscape:label="Color Shift"
       id="filter438"
       x="0"
       y="0"
       width="1"
       height="1">
      <feColorMatrix
         type="hueRotate"
         values="213"
         result="color1"
         id="feColorMatrix434" />
      <feColorMatrix
         type="saturate"
         values="0.88785"
         result="color2"
         id="feColorMatrix436" />
    </filter>
    <filter
       style="color-interpolation-filters:sRGB;"
       inkscape:label="Color Shift"
       id="filter444"
       x="0"
       y="0"
       width="1"
       height="1">
      <feColorMatrix
         type="hueRotate"
         values="213"
         result="color1"
         id="feColorMatrix440" />
      <feColorMatrix
         type="saturate"
         values="0.88785"
         result="color2"
         id="feColorMatrix442" />
    </filter>
    <filter
       style="color-interpolation-filters:sRGB;"
       inkscape:label="Color Shift"
       id="filter450"
       x="0"
       y="0"
       width="1"
       height="1">
      <feColorMatrix
         type="hueRotate"
         values="213"
         result="color1"
         id="feColorMatrix446" />
      <feColorMatrix
         type="saturate"
         values="0.88785"
         result="color2"
         id="feColorMatrix448" />
    </filter>
    <filter
       style="color-interpolation-filters:sRGB;"
       inkscape:label="Color Shift"
       id="filter456"
       x="0"
       y="0"
       width="1"
       height="1">
      <feColorMatrix
         type="hueRotate"
         values="213"
         result="color1"
         id="feColorMatrix452" />
      <feColorMatrix
         type="saturate"
         values="0.88785"
         result="color2"
         id="feColorMatrix454" />
    </filter>
  </defs>
  <g
     id="Top_Right"
     data-name="Top Right"
     style="filter:url(#filter408)">
    <path
       class="cls-1"
       d="M1579.4,37.3a5.22,5.22,0,0,0,.1,7.4l71,69.2a5.23,5.23,0,1,0,7.5-7.3l-71.1-69.4A5.44,5.44,0,0,0,1579.4,37.3Z"
       id="path6" />
    <circle
       class="cls-2"
       cx="1613.1"
       cy="70.3"
       r="53"
       id="circle8" />
    <ellipse
       class="cls-3"
       cx="1578.47"
       cy="49.7"
       rx="12.4"
       ry="5.2"
       transform="translate(793.05 1419.79) rotate(-61.98)"
       id="ellipse10" />
    <path
       class="cls-4"
       d="M1649.2,43.1a63.46,63.46,0,0,1-50.6,74.2,74.19,74.19,0,0,1-7.9,1,52.92,52.92,0,0,0,53.2-91A61.22,61.22,0,0,1,1649.2,43.1Z"
       id="path12" />
  </g>
  <g
     id="Top_Right-2"
     data-name="Top Right"
     style="filter:url(#filter414)">
    <path
       class="cls-1"
       d="M1329.1,111.6a5.1,5.1,0,0,0,5.3,5.1l99.1-1.2a5.2,5.2,0,1,0,.2-10.4l-99.4,1.2A5.25,5.25,0,0,0,1329.1,111.6Z"
       id="path15" />
    <circle
       class="cls-2"
       cx="1376.3"
       cy="111"
       r="53"
       id="circle17" />
    <ellipse
       class="cls-3"
       cx="1337.36"
       cy="120.86"
       rx="5.2"
       ry="12.4"
       transform="translate(23 395.78) rotate(-16.98)"
       id="ellipse19" />
    <path
       class="cls-4"
       d="M1382.6,66.3a63.4,63.4,0,0,1,16.7,88.2,75.71,75.71,0,0,1-4.9,6.3,53,53,0,0,0-26.9-102.1A61.17,61.17,0,0,1,1382.6,66.3Z"
       id="path21" />
  </g>
  <g
     id="Top_Right-3"
     data-name="Top Right"
     style="filter:url(#filter420)">
    <path
       class="cls-1"
       d="M1140.1,185.1a5.22,5.22,0,0,0,7.4-.1l69.2-71a5.23,5.23,0,1,0-7.3-7.5L1140,177.6A5.34,5.34,0,0,0,1140.1,185.1Z"
       id="path24" />
    <circle
       class="cls-2"
       cx="1173"
       cy="151.3"
       r="53"
       id="circle26" />
    <ellipse
       class="cls-3"
       cx="1152.42"
       cy="185.88"
       rx="5.2"
       ry="12.4"
       transform="translate(446.93 1115.89) rotate(-61.98)"
       id="ellipse28" />
    <path
       class="cls-4"
       d="M1145.8,115.2a63.46,63.46,0,0,1,74.2,50.6,74.19,74.19,0,0,1,1,7.9,52.92,52.92,0,0,0-91-53.2A63.89,63.89,0,0,1,1145.8,115.2Z"
       id="path30" />
  </g>
  <g
     id="g41"
     style="filter:url(#filter426)">
    <path
       class="cls-1"
       d="M993.8,214.7a5.1,5.1,0,0,0,5.1-5.3l-1.2-99.1a5.2,5.2,0,1,0-10.4-.2l1.2,99.4A5.13,5.13,0,0,0,993.8,214.7Z"
       id="path33" />
    <circle
       class="cls-2"
       cx="993.2"
       cy="167.6"
       r="53"
       transform="translate(668.67 1121.13) rotate(-80.78)"
       id="circle35" />
    <ellipse
       class="cls-3"
       cx="1003.12"
       cy="206.5"
       rx="12.4"
       ry="5.2"
       transform="translate(-16.58 301.91) rotate(-16.98)"
       id="ellipse37" />
    <path
       class="cls-4"
       d="M948.5,161.3a63.4,63.4,0,0,1,88.2-16.7,75.71,75.71,0,0,1,6.3,4.9,53,53,0,0,0-102.1,26.9A59.48,59.48,0,0,1,948.5,161.3Z"
       id="path39" />
  </g>
  <g
     id="Top_Right-4"
     data-name="Top Right"
     style="filter:url(#filter432)">
    <path
       class="cls-1"
       d="M846.7,183.2a5.22,5.22,0,0,0-.1-7.4l-71-69.2a5.23,5.23,0,1,0-7.5,7.3l71.1,69.4A5.34,5.34,0,0,0,846.7,183.2Z"
       id="path43" />
    <circle
       class="cls-2"
       cx="812.9"
       cy="150.3"
       r="53"
       id="circle45" />
    <ellipse
       class="cls-3"
       cx="847.53"
       cy="170.81"
       rx="12.4"
       ry="5.2"
       transform="translate(298.58 838.75) rotate(-61.98)"
       id="ellipse47" />
    <path
       class="cls-4"
       d="M776.9,177.5a63.46,63.46,0,0,1,50.6-74.2,74.19,74.19,0,0,1,7.9-1,52.92,52.92,0,0,0-53.2,91A55.52,55.52,0,0,1,776.9,177.5Z"
       id="path49" />
  </g>
  <g
     id="Top_Right-5"
     data-name="Top Right"
     style="filter:url(#filter438)">
    <path
       class="cls-1"
       d="M655.8,109a5.1,5.1,0,0,0-5.3-5.1l-99.1,1.2a5.2,5.2,0,0,0-.2,10.4l99.4-1.2A5.18,5.18,0,0,0,655.8,109Z"
       id="path52" />
    <circle
       class="cls-2"
       cx="608.7"
       cy="109.6"
       r="53"
       id="circle54" />
    <ellipse
       class="cls-3"
       cx="647.58"
       cy="99.64"
       rx="5.2"
       ry="12.4"
       transform="translate(-0.87 193.44) rotate(-16.98)"
       id="ellipse56" />
    <path
       class="cls-4"
       d="M602.4,154.3a63.4,63.4,0,0,1-16.7-88.2,75.71,75.71,0,0,1,4.9-6.3,53,53,0,0,0,26.9,102.1A66.84,66.84,0,0,1,602.4,154.3Z"
       id="path58" />
  </g>
  <g
     id="Top_Right-6"
     data-name="Top Right"
     style="filter:url(#filter444)">
    <path
       class="cls-1"
       d="M403.8,35.5a5.22,5.22,0,0,0-7.4.1l-69.2,71a5.23,5.23,0,1,0,7.3,7.5L403.9,43A5.44,5.44,0,0,0,403.8,35.5Z"
       id="path61" />
    <circle
       class="cls-2"
       cx="370.8"
       cy="69.3"
       r="53"
       id="circle63" />
    <ellipse
       class="cls-3"
       cx="391.41"
       cy="34.67"
       rx="5.2"
       ry="12.4"
       transform="translate(176.92 363.91) rotate(-61.98)"
       id="ellipse65" />
    <path
       class="cls-4"
       d="M398,105.3a63.46,63.46,0,0,1-74.2-50.6,74.19,74.19,0,0,1-1-7.9,52.92,52.92,0,0,0,91,53.2A54.5,54.5,0,0,1,398,105.3Z"
       id="path67" />
  </g>
  <g
     id="Top_Right-7"
     data-name="Top Right"
     style="filter:url(#filter450)">
    <path
       class="cls-1"
       d="M1873.4,5.8a5.1,5.1,0,0,0-5.1,5.3l1.2,99.1a5.2,5.2,0,0,0,10.4.2L1878.7,11A5.31,5.31,0,0,0,1873.4,5.8Z"
       id="path70" />
    <circle
       class="cls-2"
       cx="1874"
       cy="53"
       r="53"
       id="circle72" />
    <ellipse
       class="cls-3"
       cx="1864.11"
       cy="13.99"
       rx="12.4"
       ry="5.2"
       transform="translate(77.16 544.94) rotate(-16.98)"
       id="ellipse74" />
    <path
       class="cls-4"
       d="M1918.7,59.3A63.4,63.4,0,0,1,1830.5,76a75.71,75.71,0,0,1-6.3-4.9,53,53,0,0,0,102.1-26.9A64.84,64.84,0,0,1,1918.7,59.3Z"
       id="path76" />
  </g>
  <g
     id="g85"
     style="filter:url(#filter456)">
    <circle
       class="cls-2"
       cx="110.3"
       cy="110.3"
       r="53"
       id="circle79" />
    <ellipse
       class="cls-3"
       transform="translate(2.52 155.64) rotate(-61.98)"
       id="ellipse81"
       ry="12.4"
       rx="5.2"
       cy="75.72"
       cx="130.83" />
    <path
       class="cls-4"
       d="M137.5,146.3A63.46,63.46,0,0,1,63.3,95.7a74.19,74.19,0,0,1-1-7.9,52.92,52.92,0,0,0,91,53.2A55.52,55.52,0,0,1,137.5,146.3Z"
       id="path83" />
  </g>
</svg>
